M48
;Layer_Color=6321
;FILE_FORMAT=4:4
METRIC,LZ
;TYPE=PLATED
T2F00S00C1.0000
T3F00S00C1.0200
T4F00S00C2.0000
T5F00S00C3.0000
T6F00S00C3.1000
%
T02
X007565Y00384
X00974
Y005165
Y00584
Y007165
Y00784
X007565
Y007165
Y00684
Y006165
Y00584
Y005165
Y00484
Y004165
Y008165
Y00884
Y009165
X007565Y00984
Y010165
Y01084
Y011165
X00974
Y00984
X00974Y009165
T03
X00304Y0038393
Y0040933
Y0043473
Y0046013
Y00604
Y006294
Y006548
Y006802
Y00824
Y008494
Y008748
Y009002
Y0104612
Y0107152
Y0109692
Y0112232
T04
X00444Y00329
X00644
X00844
X01044
X00644Y01179
X00444
X00844
X01044
T05
X00294Y00294
X01214
Y01214
X00294
T06
X01044Y00754
X00444
M30
