G04*
G04 #@! TF.GenerationSoftware,Altium Limited,CircuitStudio,1.5.2 (1.5.2.30)*
G04*
G04 Layer_Physical_Order=1*
G04 Layer_Color=13311*
%FSLAX44Y44*%
%MOMM*%
G71*
G01*
G75*
%ADD10C,1.0000*%
%ADD11C,2.0000*%
%ADD12O,2.0000X4.0000*%
%ADD13O,4.0000X2.0000*%
%ADD14C,1.3700*%
%ADD15R,1.3700X1.3700*%
%ADD16C,1.8000*%
%ADD17C,5.0000*%
%ADD18C,6.0000*%
D10*
X731170Y409330D02*
X756500Y384000D01*
X304000Y409330D02*
X731170D01*
X706500Y476500D02*
Y516500D01*
X664730Y434730D02*
X706500Y476500D01*
X304000Y434730D02*
X664730D01*
X306920Y1094000D02*
X681500D01*
X304000Y1096920D02*
X306920Y1094000D01*
X366500Y916500D02*
X756500D01*
X324800Y874800D02*
X366500Y916500D01*
X304000Y874800D02*
X324800D01*
X364000Y674000D02*
X681500D01*
X344800Y654800D02*
X364000Y674000D01*
X304000Y629400D02*
X638600D01*
X304000Y654800D02*
X344800D01*
X304000Y849400D02*
X648600D01*
X304000Y1071520D02*
X326480D01*
X364000Y1034000D01*
X654000D01*
D11*
X681500Y1094000D02*
X721500Y1134000D01*
X1054000Y584000D02*
X1064000Y574000D01*
Y509000D02*
Y574000D01*
Y509000D02*
X1128000Y445000D01*
X974000Y584000D02*
X1054000D01*
X1084000Y984000D02*
X1104000Y964000D01*
Y469000D02*
Y964000D01*
Y469000D02*
X1128000Y445000D01*
X814000Y1084000D02*
X874000Y1024000D01*
Y404000D02*
Y1024000D01*
Y404000D02*
X949000Y329000D01*
X756500Y884000D02*
X834000Y806500D01*
Y339000D02*
Y806500D01*
Y339000D02*
X844000Y329000D01*
X304000Y1122320D02*
X315680Y1134000D01*
X721500D01*
X324000Y944000D02*
X729000D01*
X304000Y924000D02*
X324000Y944000D01*
X304000Y900200D02*
Y924000D01*
X729000Y944000D02*
X756500Y916500D01*
X484000Y824000D02*
X524000Y784000D01*
X304000Y824000D02*
X484000D01*
X524000Y784000D02*
X714000D01*
X648600Y849400D02*
X714000Y784000D01*
X756500D01*
X621500Y704000D02*
X661500Y744000D01*
X327800Y704000D02*
X621500D01*
X304000Y680200D02*
X327800Y704000D01*
X681500Y674000D02*
X724000Y716500D01*
X604000Y604000D02*
X654000Y554000D01*
X304000Y604000D02*
X604000D01*
X684000Y584000D02*
X744000D01*
X638600Y629400D02*
X684000Y584000D01*
X654000Y554000D02*
X714000D01*
X744000Y584000D01*
X756500D01*
X661500Y744000D02*
X729000D01*
X756500Y716500D01*
X794000Y354000D02*
Y646500D01*
X769000Y329000D02*
X794000Y354000D01*
X644000Y329000D02*
X769000D01*
X993000Y445000D02*
X1113000D01*
X974000Y984000D02*
X1084000D01*
X934000Y504000D02*
X993000Y445000D01*
X934000Y504000D02*
Y744000D01*
X974000Y784000D01*
X1067000Y384000D02*
X1128000Y445000D01*
X974000Y384000D02*
X1067000D01*
X756500Y1084000D02*
X814000D01*
X949000Y329000D02*
X1044000D01*
X756500Y684000D02*
X794000Y646500D01*
X304070Y384000D02*
X756500D01*
X706500Y516500D02*
X756500D01*
X650130Y460130D02*
X706500Y516500D01*
X304000Y460130D02*
X650130D01*
X724000Y716500D02*
X756500D01*
X344000Y984000D02*
X704000D01*
X654000Y1034000D02*
X704000Y984000D01*
X756500D01*
X304000Y1024000D02*
Y1046120D01*
Y1024000D02*
X344000Y984000D01*
X704000Y1116500D02*
X756500D01*
D12*
X1128000Y445000D02*
D03*
X1186000Y444000D02*
D03*
D13*
X1158000Y492000D02*
D03*
D14*
X304000Y680200D02*
D03*
Y654800D02*
D03*
Y629400D02*
D03*
Y460130D02*
D03*
Y434730D02*
D03*
Y409330D02*
D03*
Y900200D02*
D03*
Y874800D02*
D03*
Y849400D02*
D03*
Y1122320D02*
D03*
Y1096920D02*
D03*
Y1071520D02*
D03*
D15*
Y604000D02*
D03*
Y383930D02*
D03*
Y824000D02*
D03*
Y1046120D02*
D03*
D16*
X974000Y584000D02*
D03*
Y716500D02*
D03*
X756500D02*
D03*
Y684000D02*
D03*
Y616500D02*
D03*
Y584000D02*
D03*
X974000Y384000D02*
D03*
Y516500D02*
D03*
X756500D02*
D03*
Y484000D02*
D03*
Y416500D02*
D03*
Y384000D02*
D03*
X974000Y784000D02*
D03*
Y916500D02*
D03*
X756500D02*
D03*
Y884000D02*
D03*
Y816500D02*
D03*
Y784000D02*
D03*
X974000Y984000D02*
D03*
Y1116500D02*
D03*
X756500D02*
D03*
Y1084000D02*
D03*
Y1016500D02*
D03*
Y984000D02*
D03*
D17*
X1044000Y754000D02*
D03*
X444000D02*
D03*
X1044000Y1179000D02*
D03*
X444000D02*
D03*
Y329000D02*
D03*
X1044000D02*
D03*
X844000D02*
D03*
X644000D02*
D03*
X844000Y1179000D02*
D03*
X644000D02*
D03*
D18*
X294000Y1214000D02*
D03*
X1214000D02*
D03*
Y294000D02*
D03*
X294000D02*
D03*
M02*
