G04*
G04 #@! TF.GenerationSoftware,Altium Limited,CircuitStudio,1.5.2 (1.5.2.30)*
G04*
G04 Layer_Color=20142*
%FSLAX44Y44*%
%MOMM*%
G71*
G01*
G75*
%ADD21O,2.2032X4.2032*%
%ADD22O,4.2032X2.2032*%
%ADD23C,1.5732*%
%ADD24R,1.5732X1.5732*%
%ADD25C,2.0032*%
%ADD26C,5.2032*%
%ADD27C,6.2032*%
D21*
X1128000Y445000D02*
D03*
X1186000Y444000D02*
D03*
D22*
X1158000Y492000D02*
D03*
D23*
X304000Y680200D02*
D03*
Y654800D02*
D03*
Y629400D02*
D03*
Y460130D02*
D03*
Y434730D02*
D03*
Y409330D02*
D03*
Y900200D02*
D03*
Y874800D02*
D03*
Y849400D02*
D03*
Y1122320D02*
D03*
Y1096920D02*
D03*
Y1071520D02*
D03*
D24*
Y604000D02*
D03*
Y383930D02*
D03*
Y824000D02*
D03*
Y1046120D02*
D03*
D25*
X974000Y584000D02*
D03*
Y716500D02*
D03*
X756500D02*
D03*
Y684000D02*
D03*
Y616500D02*
D03*
Y584000D02*
D03*
X974000Y384000D02*
D03*
Y516500D02*
D03*
X756500D02*
D03*
Y484000D02*
D03*
Y416500D02*
D03*
Y384000D02*
D03*
X974000Y784000D02*
D03*
Y916500D02*
D03*
X756500D02*
D03*
Y884000D02*
D03*
Y816500D02*
D03*
Y784000D02*
D03*
X974000Y984000D02*
D03*
Y1116500D02*
D03*
X756500D02*
D03*
Y1084000D02*
D03*
Y1016500D02*
D03*
Y984000D02*
D03*
D26*
X1044000Y754000D02*
D03*
X444000D02*
D03*
X1044000Y1179000D02*
D03*
X444000D02*
D03*
Y329000D02*
D03*
X1044000D02*
D03*
X844000D02*
D03*
X644000D02*
D03*
X844000Y1179000D02*
D03*
X644000D02*
D03*
D27*
X294000Y1214000D02*
D03*
X1214000D02*
D03*
Y294000D02*
D03*
X294000D02*
D03*
M02*
